<?xml version="1.0" encoding="UTF-8"?>
<svg id="Vrstva_2" data-name="Vrstva 2" xmlns="http://www.w3.org/2000/svg" viewBox="0 0 139.91 36.68">
  <defs>
    <style>
      .cls-1 {
        fill: #c1c1c1;
      }

      .cls-2 {
        fill: #fff;
      }

      .cls-3 {
        fill: #878787;
      }
    </style>
  </defs>
  <g id="Vrstva_1-2" data-name="Vrstva 1">
    <g>
      <path class="cls-2" d="M35.23,31.41l3.24-14.15c.61.09,2.16-.23,2.57.19l2.83,6.01,6.27-6.2h2.36l-3.24,14.15h-2.56l2.29-9.7c-.26-.07-.26.1-.38.22-1.76,1.79-3.53,3.58-5.21,5.44l-.41.13-2.84-5.94-2.36,9.84h-2.56Z"/>
      <polygon class="cls-2" points="45.35 0 43.87 6.47 52.1 6.47 53.58 0 56.55 0 53.17 14.15 50.34 14.15 51.56 9.03 43.33 9.03 42.11 14.15 39.15 14.15 42.38 0 45.35 0"/>
      <path class="cls-2" d="M117.92,31.41c-.07,1.43.42,2.64,1.88,3.04,2.86.78,4.56-1.58,5-4.12-4.36,3.09-8.43.04-6.81-5.12,1.16-3.7,5.69-5.76,8.7-2.83l.34-1.08h2.23c-.86,3.19-1.38,6.5-2.25,9.68-.53,1.93-1.05,3.58-2.83,4.72-3.75,2.39-8.47.27-8.54-4.29h2.29ZM122.74,23.35c-2.55.44-3.9,5.35-1.08,5.87,4.28.79,6.03-6.71,1.08-5.87Z"/>
      <path class="cls-2" d="M88.11,4.04c.29.28-1.91,6.28-1.25,7.92.52,1.28,2.54.59,3.27-.17,1.48-1.54,1.73-5.72,2.43-7.75h2.43c-.9,3.41-1.46,7.06-2.44,10.44-.48,1.67-1.26,3.4-2.78,4.37-2.74,1.75-6.72.76-8.14-2.2l2.02-1.01c2.04,4,6.63,1.5,6.88-2.29-1.34,1.53-4.22,1.91-5.67.34-1.82-1.97.59-7.24.82-9.64h2.43Z"/>
      <path class="cls-2" d="M58.98,31.41l.27-1.21c-2.5,2.25-7.2,1.8-7.55-2.09-.49-5.49,5.23-9.24,9.71-5.73l.14-1.08h2.29l-2.43,10.11h-2.43ZM55.38,24.31c-1.31,1.34-1.86,4.38.48,4.88s4.19-1.28,4.32-3.52c.17-2.85-3.21-3-4.81-1.36Z"/>
      <path class="cls-2" d="M93.51,26.96h-8.63c.4,2.92,4.15,3.38,5.87,1.25l1.96.97c-2.17,2.93-6.82,3.6-9.17.54-2.12-2.75-.84-6.6,2.02-8.22,4.27-2.43,8.76.69,7.96,5.46ZM91.21,25.2c-.36-3.53-5.33-3.03-6.07,0h6.07Z"/>
      <path class="cls-2" d="M77.45,17.25l-1.89,7.95c.23.06.27-.09.41-.2.59-.47,3.97-3.71,4.25-3.71h2.63c.05.22-.07.28-.2.41-.42.45-1.21.97-1.69,1.41-.31.28-2.23,2.02-2.26,2.18l2.54,6.11h-2.56l-1.82-4.45c-.19-.04-1.91,1.55-2.07,1.84-.43.78-.27,1.88-.76,2.61h-2.36l3.37-14.15h2.43Z"/>
      <path class="cls-2" d="M78.67,0l-1.89,7.95c.09.1,1.01-.69,1.14-.81.45-.39,3.28-3.1,3.51-3.1h2.63l-4.16,4,2.54,6.11h-2.56l-1.76-4.58c-.55.6-1.76,1.28-2.14,1.97-.43.78-.24,1.88-.76,2.61h-2.36l3.37-14.15h2.43Z"/>
      <path class="cls-2" d="M61.24,3.81c7.68-1.05,7.62,10.18.37,10.75s-6.99-9.84-.37-10.75ZM62.05,5.96c-4.31.22-5,6.95-.32,6.29,3.87-.54,4.16-6.49.32-6.29Z"/>
      <path class="cls-2" d="M133.3,21.3l-1.49,6.54c.12,2.06,2.69,1.91,3.7.6,1.11-1.44,1.15-5.43,2.03-7.14h2.36l-2.29,10.11h-2.43l.27-1.08c-2.07,2.21-6.38,1.65-6.19-1.93.11-2.2,1.32-4.87,1.6-7.1h2.43Z"/>
      <path class="cls-2" d="M114.95,31.41h-2.43l1.47-6.66c-.35-2.26-3.22-1.64-4.02,0l-1.64,6.66h-2.43l2.29-10.11h2.29l-.07.94c2.16-2.11,6.05-1.49,6.13,1.93l-1.61,7.23Z"/>
      <polygon class="cls-2" points="107.94 4.04 107.4 6.13 101.19 12 106.59 12 106.19 14.15 97.28 14.15 97.68 12.19 104.03 6.2 99.31 6.2 99.85 4.04 107.94 4.04"/>
      <path class="cls-2" d="M99.71,18.87l-.4,2.43h2.29l-.55,2.14c-.47.13-2.22-.23-2.39.24l-1.08,4.69c0,1.02,1.25,1.1,2,.88l-.33,2.03c-.96.42-2.36.28-3.22-.3-2.21-1.5.01-5.44.18-7.52h-1.62c0-.15,0-.3.01-.46.02-.2.36-1.61.42-1.67.12-.12,1.12-.18,1.6-.63.57-.54.44-1.24.87-1.83h2.23Z"/>
      <polygon class="cls-2" points="73.68 0 70.31 14.15 67.74 14.15 70.98 0 73.68 0"/>
      <path class="cls-2" d="M72.6,21.16l-.41,2.15c-2.53-.11-4.1-.12-4.95,2.54-.55,1.74-.79,3.77-1.25,5.56h-2.43l2.29-10.11h2.29l-.07,1.08c.34-.46,1.49-1.21,2.02-1.21h2.5Z"/>
      <polygon class="cls-2" points="105.92 21.3 103.62 31.41 101.19 31.41 103.49 21.3 105.92 21.3"/>
      <path class="cls-2" d="M106.56,16.34s.53,1.02.54,1.08c.05,1.23-1.13,2.04-2.3,1.69-.05-.01-.75-.56-.78-.6-.63-1.08.17-2.54,1.42-2.54.14,0,1.03.3,1.11.38Z"/>
      <polygon class="cls-2" points="27.05 16.63 23.65 31.4 18.4 31.4 21.75 16.63 27.05 16.63"/>
      <polygon class="cls-3" points="32.2 24.26 33.38 19.06 1.15 19.19 0 24.32 32.2 24.26"/>
      <polygon class="cls-2" points="13.07 0 18.4 0 11.19 31.41 5.93 31.41 13.07 0"/>
      <polygon class="cls-1" points="35.55 11.93 36.72 6.73 4.5 6.87 3.35 11.99 35.55 11.93"/>
      <polygon class="cls-2" points="30.86 0 27.05 16.63 21.75 16.63 25.53 0 30.86 0"/>
    </g>
  </g>
</svg>